<svg width="1980" height="102" viewBox="0 0 1980 102" fill="none" xmlns="http://www.w3.org/2000/svg">
<path d="M0 70.8105L16.5 67.4281C33 64.172 66 57.2174 99 62.3702C132 67.3332 165 84.4036 198 80.9263C231 77.449 264 54.0563 297 40.4632C330 26.8701 363 23.7089 396 33.7298C429 43.9405 462 67.3332 495 67.4281C528 67.3332 561 43.9405 594 38.7877C627 33.8247 660 47.1017 693 55.6368C726 64.172 759 67.3332 792 62.3702C825 57.2174 858 43.9405 891 45.5211C924 47.1017 957 64.172 990 62.3702C1023 60.6947 1056 40.4632 1089 38.7877C1122 36.9859 1155 54.0563 1188 67.4281C1221 80.9263 1254 91.0421 1287 94.4246C1320 97.6806 1353 94.5194 1386 84.3088C1419 74.2878 1452 57.2174 1485 57.3123C1518 57.2174 1551 74.2878 1584 74.193C1617 74.2878 1650 57.2174 1683 48.9035C1716 40.4632 1749 40.4632 1782 43.8456C1815 47.1016 1848 54.0563 1881 59.0193C1914 64.172 1947 67.3332 1963.5 69.1351L1980 70.8105V0H1963.5C1947 0 1914 0 1881 0C1848 0 1815 0 1782 0C1749 0 1716 0 1683 0C1650 0 1617 0 1584 0C1551 0 1518 0 1485 0C1452 0 1419 0 1386 0C1353 0 1320 0 1287 0C1254 0 1221 0 1188 0C1155 0 1122 0 1089 0C1056 0 1023 0 990 0C957 0 924 0 891 0C858 0 825 0 792 0C759 0 726 0 693 0C660 0 627 0 594 0C561 0 528 0 495 0C462 0 429 0 396 0C363 0 330 0 297 0C264 0 231 0 198 0C165 0 132 0 99 0C66 0 33 0 16.5 0H0V70.8105Z" fill="white"/>
</svg>